<svg width="123" height="122" viewBox="0 0 123 122" fill="none" xmlns="http://www.w3.org/2000/svg">
<mask id="mask0_2113_54" style="mask-type:luminance" maskUnits="userSpaceOnUse" x="18" y="13" width="86" height="96">
<path d="M18 13H103.347V109H18V13Z" fill="white"/>
</mask>
<g mask="url(#mask0_2113_54)">
<path d="M103.049 36.4939V92.8012C103.049 103.446 85.0928 109.006 67.3414 109.006C49.6017 109.006 31.6338 103.446 31.6338 92.8012V85.6024C33.33 85.9578 35.1022 86.1385 36.9212 86.1385C37.4476 86.1385 37.9857 86.1325 38.5004 86.0903V92.8012C38.5004 95.8795 48.6775 101.879 67.3414 101.879C86.0052 101.879 96.1882 95.8795 96.1882 92.8012V40.7228C98.867 39.518 101.189 38.1024 103.049 36.4939ZM31.6338 37.9096V76.5602C31.8444 76.7108 32.09 76.8554 32.3357 77C32.6574 77.1807 32.9732 77.3313 33.33 77.4698L33.4236 77.506C34.5173 77.9457 35.6813 78.1566 37.0031 78.1566C37.3658 78.1566 37.7342 78.1506 38.1027 78.1204C38.2314 78.1084 38.3601 78.0963 38.5004 78.0783V40.7228C37.7518 40.3855 37.0265 40.0301 36.3422 39.6626C34.7981 38.8373 33.406 37.9397 32.1895 36.9518C32.0082 36.8012 31.8093 36.6385 31.6338 36.4819M38.3718 83.3072C57.369 82.0481 78.969 56.9156 87.6839 45.7289C86.2217 46.0903 84.7068 46.4096 83.151 46.6867C74.9918 56.7771 55.3277 78.8674 38.6642 80.2409C38.091 80.2891 37.5178 80.3192 36.968 80.3192C34.8156 80.3192 32.7802 79.9277 30.9553 79.1867C30.2769 78.9277 29.6335 78.6204 29.0545 78.2891C25.1415 76.0783 22.7435 72.9277 21.7258 68.6566C19.1698 57.9216 26.1826 43.5903 29.651 37.3975C28.8614 36.6445 28.1654 35.8554 27.563 35.0421C24.2759 40.7891 15.9295 57.0301 18.8715 69.3795C20.0881 74.4759 23.0476 78.3795 27.6566 80.9819C29.0837 81.7771 30.5752 82.3795 32.1134 82.7771C33.6225 83.1747 35.2367 83.3735 36.9154 83.3735C37.4125 83.3735 37.8863 83.3554 38.3718 83.3072ZM102.99 26.9518C102.99 29.6385 101.049 32.1566 97.6797 34.2831C91.3921 38.265 80.1622 40.9156 67.3414 40.9156C54.5323 40.9156 43.3024 38.265 37.0148 34.2831C33.64 32.1566 31.6982 29.6385 31.6982 26.9518C31.6982 19.2409 47.6598 12.9939 67.3414 12.9939C87.0347 12.9939 102.99 19.2409 102.99 26.9518ZM98.0891 26.9518C98.0891 24.6807 87.5143 18.0903 67.3414 18.0903C47.1685 18.0903 36.6054 24.6807 36.6054 26.9518C36.6054 27.8674 38.3133 29.4759 41.6647 31.0843C46.648 28.7048 55.2809 26.3493 67.3414 26.3493C79.4077 26.3493 88.0348 28.7048 93.0181 31.0843C96.3754 29.4879 98.0891 27.8674 98.0891 26.9518ZM57.1117 45.4397C51.8769 44.8494 46.8819 43.8012 42.5069 42.3132C43.1854 43.6867 44.9927 47.7891 45.0863 52.1506C45.2091 57.4879 39.9978 68.4457 46.0104 68.4457C50.3679 68.4457 46.0104 57.8734 46.6772 52.524C46.9112 50.6807 47.5896 48.5662 48.2564 46.8313C49.5783 46.7831 51.2744 47.0662 51.7073 48.7048C52.4442 51.506 53.1812 55.3253 55.2692 52.9036C57.0122 50.8795 57.1234 46.7228 57.1117 45.4397Z" fill="black"/>
</g>
<ellipse cx="67" cy="30.5" rx="26" ry="5.5" fill="#005B99"/>
<path d="M42 42L50.7931 44.2308L57 45.3462L57 48L56.4828 50.3654L55.5042 52.8272C55.1582 53.6978 54.3161 54.2692 53.3793 54.2692V54.2692L52.3448 52.5962V52.5962C49.7924 51.4627 46.9615 53.4885 47.2107 56.2702L47.5 59.5L48 65L47.8403 67.8009C47.7513 69.3615 46.6314 70.6705 45.1034 71V71L44.5512 70.6427C43.3009 69.8339 42.6034 68.3975 42.741 66.9148L43.0345 63.75L44.5862 55.9423V51.8453C44.5862 50.1279 44.2913 48.4232 43.7142 46.8056L42 42Z" fill="#005B99"/>
</svg>
