<svg width="761" height="282" viewBox="0 0 761 282" fill="none" xmlns="http://www.w3.org/2000/svg">
<rect width="761" height="282" fill="#005B99"/>
<path d="M292.045 95.576C288.888 95.576 286.114 94.5947 283.725 92.632C281.378 90.6693 279.544 87.9173 278.221 84.376C276.941 80.792 276.301 76.568 276.301 71.704C276.301 67.0107 277.005 62.9147 278.413 59.416C279.864 55.8747 281.784 53.144 284.173 51.224C286.605 49.2613 289.293 48.28 292.237 48.28C293.986 48.28 295.522 48.4507 296.845 48.792C298.168 49.0907 299.341 49.496 300.365 50.008C300.877 50.3067 301.133 50.7547 301.133 51.352L301.325 61.08C301.325 61.8053 301.069 62.168 300.557 62.168C300.088 62.168 299.789 61.8907 299.661 61.336L299.021 58.968C298.125 55.64 297.08 53.336 295.885 52.056C294.733 50.776 293.346 50.136 291.725 50.136C288.738 50.136 286.242 51.992 284.237 55.704C282.274 59.3733 281.293 64.7067 281.293 71.704C281.293 76.4827 281.784 80.5147 282.765 83.8C283.789 87.0853 285.09 89.56 286.669 91.224C288.29 92.888 289.997 93.72 291.789 93.72C293.709 93.72 295.245 93.1227 296.397 91.928C297.592 90.7333 298.594 88.4293 299.405 85.016L300.173 81.88C300.301 81.24 300.642 80.9627 301.197 81.048C301.666 81.1333 301.901 81.496 301.901 82.136L301.645 92.504C301.645 93.1013 301.368 93.5493 300.813 93.848C299.789 94.36 298.573 94.7653 297.165 95.064C295.8 95.4053 294.093 95.576 292.045 95.576ZM315.371 95C314.859 95 314.603 94.7653 314.603 94.296C314.603 93.8693 314.838 93.6133 315.307 93.528L316.203 93.4C317.099 93.272 317.76 93.016 318.187 92.632C318.614 92.248 318.827 91.608 318.827 90.712V54.04C318.827 53.272 318.699 52.7387 318.443 52.44C318.23 52.1413 317.824 51.9707 317.227 51.928L315.755 51.736C315.286 51.6507 315.051 51.3947 315.051 50.968C315.051 50.5413 315.286 50.2853 315.755 50.2C316.95 49.944 317.974 49.6453 318.827 49.304C319.68 48.9627 320.384 48.6213 320.939 48.28C321.622 47.8533 322.134 47.64 322.475 47.64C322.944 47.64 323.179 47.9813 323.179 48.664V90.712C323.179 91.608 323.307 92.248 323.563 92.632C323.862 92.9733 324.459 93.208 325.355 93.336L326.827 93.528C327.296 93.6133 327.531 93.8693 327.531 94.296C327.531 94.7653 327.275 95 326.763 95H315.371ZM345.434 95.576C343.642 95.576 342.17 95.0213 341.018 93.912C339.866 92.76 339.29 91.2453 339.29 89.368C339.29 87.5333 339.866 85.8053 341.018 84.184C342.17 82.52 343.748 81.0267 345.754 79.704C347.759 78.3813 350.042 77.3147 352.602 76.504C353.156 76.3333 353.434 75.9707 353.434 75.416V69.592C353.434 67.544 353.114 66.0933 352.474 65.24C351.834 64.344 350.959 63.896 349.85 63.896C348.783 63.896 347.802 64.3867 346.906 65.368C346.052 66.3067 345.434 67.9067 345.05 70.168C344.836 71.5333 344.367 72.536 343.642 73.176C342.959 73.7733 342.255 74.072 341.53 74.072C340.335 74.072 339.738 73.4747 339.738 72.28C339.738 71.0427 340.079 69.8267 340.762 68.632C341.487 67.3947 342.426 66.2853 343.578 65.304C344.73 64.28 345.988 63.4693 347.354 62.872C348.719 62.2747 350.084 61.976 351.45 61.976C355.674 61.976 357.786 64.4293 357.786 69.336V88.92C357.786 90.712 358.234 91.608 359.13 91.608C359.684 91.608 360.196 91.2453 360.666 90.52C361.135 89.752 361.37 88.472 361.37 86.68C361.37 85.9973 361.647 85.656 362.202 85.656C362.714 85.656 362.97 86.0187 362.97 86.744C362.97 89.8587 362.415 92.12 361.306 93.528C360.239 94.8933 359.023 95.576 357.658 95.576C356.634 95.576 355.823 95.1707 355.226 94.36C354.628 93.5067 354.223 92.504 354.01 91.352C353.967 90.9253 353.775 90.712 353.434 90.712C353.135 90.6693 352.836 90.8613 352.538 91.288C351.514 92.696 350.468 93.7627 349.402 94.488C348.335 95.2133 347.012 95.576 345.434 95.576ZM347.162 92.632C348.271 92.632 349.295 92.248 350.234 91.48C351.172 90.6693 351.94 89.6027 352.538 88.28C353.135 86.9573 353.434 85.464 353.434 83.8V79.128C353.434 78.3173 352.986 78.0827 352.09 78.424C349.487 79.3627 347.46 80.664 346.01 82.328C344.602 83.9493 343.898 85.912 343.898 88.216C343.898 91.16 344.986 92.632 347.162 92.632ZM381.3 95.576C380.319 95.576 379.273 95.448 378.164 95.192C377.055 94.9787 376.159 94.7013 375.476 94.36C375.092 94.1467 374.9 93.784 374.9 93.272L374.708 86.104C374.708 85.3787 374.985 85.016 375.54 85.016C376.009 85.016 376.329 85.3573 376.5 86.04C377.225 89.0693 378.1 91.1387 379.124 92.248C380.191 93.3573 381.471 93.912 382.964 93.912C384.201 93.912 385.225 93.4427 386.036 92.504C386.847 91.5227 387.252 90.1787 387.252 88.472C387.252 86.7653 386.783 85.2507 385.844 83.928C384.905 82.6053 383.327 81.1547 381.108 79.576C378.889 78.0827 377.268 76.5893 376.244 75.096C375.22 73.56 374.708 71.896 374.708 70.104C374.708 67.672 375.561 65.7093 377.268 64.216C378.975 62.7227 381.236 61.976 384.052 61.976C384.905 61.976 385.737 62.0827 386.548 62.296C387.359 62.4667 388.084 62.7653 388.724 63.192C389.108 63.448 389.3 63.7893 389.3 64.216L389.428 71.256C389.428 71.896 389.172 72.216 388.66 72.216C388.361 72.216 388.148 72.1307 388.02 71.96C387.892 71.7467 387.785 71.4907 387.7 71.192C386.847 68.4187 385.993 66.4987 385.14 65.432C384.287 64.3227 383.241 63.768 382.004 63.768C380.895 63.768 379.977 64.152 379.252 64.92C378.527 65.688 378.164 66.648 378.164 67.8C378.164 69.2933 378.612 70.5947 379.508 71.704C380.404 72.8133 382.025 74.1787 384.372 75.8C386.505 77.336 388.105 79 389.172 80.792C390.281 82.5413 390.836 84.4613 390.836 86.552C390.836 89.2827 389.961 91.48 388.212 93.144C386.463 94.7653 384.159 95.576 381.3 95.576ZM410.588 95.576C409.606 95.576 408.561 95.448 407.452 95.192C406.342 94.9787 405.446 94.7013 404.764 94.36C404.38 94.1467 404.188 93.784 404.188 93.272L403.996 86.104C403.996 85.3787 404.273 85.016 404.828 85.016C405.297 85.016 405.617 85.3573 405.788 86.04C406.513 89.0693 407.388 91.1387 408.412 92.248C409.478 93.3573 410.758 93.912 412.252 93.912C413.489 93.912 414.513 93.4427 415.324 92.504C416.134 91.5227 416.54 90.1787 416.54 88.472C416.54 86.7653 416.07 85.2507 415.132 83.928C414.193 82.6053 412.614 81.1547 410.396 79.576C408.177 78.0827 406.556 76.5893 405.532 75.096C404.508 73.56 403.996 71.896 403.996 70.104C403.996 67.672 404.849 65.7093 406.556 64.216C408.262 62.7227 410.524 61.976 413.34 61.976C414.193 61.976 415.025 62.0827 415.836 62.296C416.646 62.4667 417.372 62.7653 418.012 63.192C418.396 63.448 418.588 63.7893 418.588 64.216L418.716 71.256C418.716 71.896 418.46 72.216 417.948 72.216C417.649 72.216 417.436 72.1307 417.308 71.96C417.18 71.7467 417.073 71.4907 416.988 71.192C416.134 68.4187 415.281 66.4987 414.428 65.432C413.574 64.3227 412.529 63.768 411.292 63.768C410.182 63.768 409.265 64.152 408.54 64.92C407.814 65.688 407.452 66.648 407.452 67.8C407.452 69.2933 407.9 70.5947 408.796 71.704C409.692 72.8133 411.313 74.1787 413.66 75.8C415.793 77.336 417.393 79 418.46 80.792C419.569 82.5413 420.124 84.4613 420.124 86.552C420.124 89.2827 419.249 91.48 417.5 93.144C415.75 94.7653 413.446 95.576 410.588 95.576ZM438.787 56.28C437.891 56.28 437.123 55.96 436.483 55.32C435.886 54.68 435.587 53.8693 435.587 52.888C435.587 51.9067 435.886 51.1173 436.483 50.52C437.123 49.88 437.891 49.56 438.787 49.56C439.683 49.56 440.43 49.88 441.027 50.52C441.624 51.1173 441.923 51.9067 441.923 52.888C441.923 53.8693 441.624 54.68 441.027 55.32C440.43 55.96 439.683 56.28 438.787 56.28ZM433.411 95C432.771 95 432.451 94.7653 432.451 94.296C432.451 93.912 432.728 93.656 433.283 93.528L434.051 93.4C435.118 93.2293 435.8 92.9733 436.099 92.632C436.398 92.248 436.547 91.608 436.547 90.712V69.208C436.547 68.44 436.419 67.928 436.163 67.672C435.95 67.3733 435.544 67.1813 434.947 67.096L433.603 66.904C433.048 66.8613 432.771 66.6267 432.771 66.2C432.771 65.8587 433.112 65.624 433.795 65.496C435.118 65.2827 436.184 64.9413 436.995 64.472C437.806 64.0027 438.595 63.4267 439.363 62.744C439.747 62.36 440.067 62.168 440.323 62.168C440.707 62.168 440.899 62.424 440.899 62.936V90.712C440.899 91.608 441.027 92.248 441.283 92.632C441.539 93.016 442.03 93.2507 442.755 93.336L444.355 93.528C444.824 93.6133 445.059 93.848 445.059 94.232C445.059 94.744 444.739 95 444.099 95H433.411ZM466.861 95.576C464.984 95.576 463.277 94.9573 461.741 93.72C460.248 92.44 459.053 90.6267 458.157 88.28C457.261 85.9333 456.813 83.1387 456.813 79.896C456.813 76.2693 457.346 73.112 458.413 70.424C459.522 67.736 461.016 65.6667 462.893 64.216C464.77 62.7227 466.861 61.976 469.165 61.976C471.128 61.976 472.664 62.36 473.773 63.128C474.2 63.4267 474.413 63.896 474.413 64.536L474.541 72.344C474.541 72.984 474.285 73.304 473.773 73.304C473.304 73.304 473.005 73.0267 472.877 72.472C472.28 70.1253 471.704 68.312 471.149 67.032C470.594 65.752 470.018 64.8773 469.421 64.408C468.824 63.896 468.162 63.64 467.437 63.64C466.584 63.64 465.688 64.1307 464.749 65.112C463.853 66.0933 463.085 67.6933 462.445 69.912C461.848 72.088 461.549 74.968 461.549 78.552C461.549 83.1173 462.125 86.552 463.277 88.856C464.472 91.16 466.008 92.312 467.885 92.312C469.378 92.312 470.616 91.6933 471.597 90.456C472.621 89.2187 473.496 86.9787 474.221 83.736C474.349 83.2667 474.605 83.032 474.989 83.032C475.501 83.032 475.693 83.4587 475.565 84.312C475.096 87.2987 474.434 89.624 473.581 91.288C472.77 92.9093 471.789 94.04 470.637 94.68C469.528 95.2773 468.269 95.576 466.861 95.576Z" fill="#EFEFEF"/>
<path d="M239.208 150.576C236.051 150.576 233.277 149.595 230.888 147.632C228.541 145.669 226.707 142.917 225.384 139.376C224.104 135.792 223.464 131.568 223.464 126.704C223.464 122.011 224.168 117.915 225.576 114.416C227.027 110.875 228.947 108.144 231.336 106.224C233.768 104.261 236.456 103.28 239.4 103.28C241.149 103.28 242.685 103.451 244.008 103.792C245.331 104.091 246.504 104.496 247.528 105.008C248.04 105.307 248.296 105.755 248.296 106.352L248.488 116.08C248.488 116.805 248.232 117.168 247.72 117.168C247.251 117.168 246.952 116.891 246.824 116.336L246.184 113.968C245.288 110.64 244.243 108.336 243.048 107.056C241.896 105.776 240.509 105.136 238.888 105.136C235.901 105.136 233.405 106.992 231.4 110.704C229.437 114.373 228.456 119.707 228.456 126.704C228.456 131.483 228.947 135.515 229.928 138.8C230.952 142.085 232.253 144.56 233.832 146.224C235.453 147.888 237.16 148.72 238.952 148.72C240.872 148.72 242.408 148.123 243.56 146.928C244.755 145.733 245.757 143.429 246.568 140.016L247.336 136.88C247.464 136.24 247.805 135.963 248.36 136.048C248.829 136.133 249.064 136.496 249.064 137.136L248.808 147.504C248.808 148.101 248.531 148.549 247.976 148.848C246.952 149.36 245.736 149.765 244.328 150.064C242.963 150.405 241.256 150.576 239.208 150.576ZM274.246 150.576C272.07 150.576 270.107 149.851 268.358 148.4C266.651 146.907 265.286 144.88 264.262 142.32C263.238 139.76 262.726 136.901 262.726 133.744C262.726 130.587 263.238 127.749 264.262 125.232C265.286 122.715 266.673 120.709 268.422 119.216C270.171 117.723 272.113 116.976 274.246 116.976C276.422 116.976 278.363 117.723 280.07 119.216C281.819 120.709 283.206 122.715 284.23 125.232C285.254 127.749 285.766 130.587 285.766 133.744C285.766 136.901 285.254 139.76 284.23 142.32C283.249 144.88 281.883 146.907 280.134 148.4C278.385 149.851 276.422 150.576 274.246 150.576ZM274.246 148.976C278.683 148.976 280.902 143.899 280.902 133.744C280.902 123.632 278.683 118.576 274.246 118.576C269.809 118.576 267.59 123.632 267.59 133.744C267.59 143.899 269.809 148.976 274.246 148.976ZM298.899 150C298.259 150 297.939 149.765 297.939 149.296C297.939 148.912 298.216 148.656 298.771 148.528L299.539 148.4C300.435 148.229 301.011 147.973 301.267 147.632C301.566 147.248 301.715 146.608 301.715 145.712V124.208C301.715 123.44 301.587 122.928 301.331 122.672C301.118 122.373 300.712 122.181 300.115 122.096L298.771 121.904C298.216 121.861 297.939 121.627 297.939 121.2C297.939 120.859 298.28 120.624 298.963 120.496C300.286 120.283 301.288 119.941 301.971 119.472C302.696 119.003 303.443 118.427 304.211 117.744C304.595 117.36 304.915 117.168 305.171 117.168C305.555 117.168 305.747 117.424 305.747 117.936V120.816C305.747 121.2 305.875 121.456 306.131 121.584C306.43 121.669 306.75 121.541 307.091 121.2C308.798 119.579 310.291 118.469 311.571 117.872C312.894 117.275 314.28 116.976 315.731 116.976C317.651 116.976 319.187 117.659 320.339 119.024C321.491 120.347 322.067 122.309 322.067 124.912V145.712C322.067 146.608 322.195 147.248 322.451 147.632C322.75 147.973 323.347 148.208 324.243 148.336L325.651 148.528C326.12 148.613 326.355 148.869 326.355 149.296C326.355 149.765 326.099 150 325.587 150H314.835C314.238 150 313.939 149.765 313.939 149.296C313.939 148.869 314.174 148.613 314.643 148.528L315.539 148.4C316.435 148.272 317.011 148.016 317.267 147.632C317.566 147.248 317.715 146.608 317.715 145.712V125.616C317.715 123.525 317.331 122.053 316.563 121.2C315.795 120.347 314.707 119.92 313.299 119.92C311.934 119.92 310.696 120.325 309.587 121.136C308.52 121.904 307.667 122.949 307.027 124.272C306.387 125.552 306.067 126.981 306.067 128.56V145.712C306.067 146.608 306.195 147.248 306.451 147.632C306.75 148.016 307.347 148.251 308.243 148.336L309.971 148.528C310.44 148.613 310.675 148.848 310.675 149.232C310.675 149.744 310.355 150 309.715 150H298.899ZM346.049 150.576C344.556 150.576 343.319 150.064 342.337 149.04C341.399 147.973 340.929 146.245 340.929 143.856V119.92C340.929 119.408 340.673 119.152 340.161 119.152H338.305C337.623 119.152 337.281 118.896 337.281 118.384C337.281 118.043 337.473 117.744 337.857 117.488C339.265 116.507 340.396 115.461 341.249 114.352C342.103 113.2 342.849 111.643 343.489 109.68C343.788 108.784 344.151 108.336 344.577 108.336C345.047 108.336 345.281 108.677 345.281 109.36V116.464C345.281 117.061 345.58 117.36 346.177 117.36H350.337C351.02 117.36 351.361 117.659 351.361 118.256C351.361 118.853 351.02 119.152 350.337 119.152H346.177C345.58 119.152 345.281 119.451 345.281 120.048V143.92C345.281 144.859 345.431 145.605 345.729 146.16C346.028 146.672 346.583 146.928 347.393 146.928C348.289 146.928 349.015 146.48 349.569 145.584C350.167 144.688 350.551 143.237 350.721 141.232C350.807 140.635 351.084 140.336 351.553 140.336C352.065 140.336 352.321 140.656 352.321 141.296C352.193 144.581 351.511 146.949 350.273 148.4C349.079 149.851 347.671 150.576 346.049 150.576ZM372.66 121.456C374.409 118.469 376.521 116.976 378.996 116.976C380.404 116.976 381.449 117.403 382.132 118.256C382.815 119.067 383.156 119.984 383.156 121.008C383.156 121.819 382.943 122.48 382.516 122.992C382.132 123.504 381.513 123.76 380.66 123.76C379.977 123.76 379.465 123.611 379.124 123.312C378.825 122.971 378.569 122.587 378.356 122.16C378.185 121.733 377.972 121.371 377.716 121.072C377.46 120.731 377.033 120.56 376.436 120.56C375.668 120.56 374.943 121.029 374.26 121.968C373.577 122.864 373.001 124.08 372.532 125.616C372.105 127.152 371.892 128.901 371.892 130.864V145.712C371.892 146.608 372.02 147.248 372.276 147.632C372.575 148.016 373.172 148.251 374.068 148.336L375.796 148.528C376.265 148.613 376.5 148.848 376.5 149.232C376.5 149.744 376.18 150 375.54 150H364.724C364.084 150 363.764 149.765 363.764 149.296C363.764 148.912 364.041 148.656 364.596 148.528L365.364 148.4C366.26 148.229 366.836 147.973 367.092 147.632C367.391 147.248 367.54 146.608 367.54 145.712V124.208C367.54 123.44 367.412 122.928 367.156 122.672C366.943 122.373 366.537 122.181 365.94 122.096L364.596 121.904C364.041 121.861 363.764 121.627 363.764 121.2C363.764 120.859 364.105 120.624 364.788 120.496C366.111 120.283 367.113 119.941 367.796 119.472C368.521 119.003 369.268 118.427 370.036 117.744C370.42 117.36 370.74 117.168 370.996 117.168C371.38 117.168 371.572 117.424 371.572 117.936V121.392C371.572 121.691 371.7 121.883 371.956 121.968C372.212 122.011 372.447 121.84 372.66 121.456ZM399.334 150.576C397.542 150.576 396.07 150.021 394.918 148.912C393.766 147.76 393.19 146.245 393.19 144.368C393.19 142.533 393.766 140.805 394.918 139.184C396.07 137.52 397.649 136.027 399.654 134.704C401.659 133.381 403.942 132.315 406.502 131.504C407.057 131.333 407.334 130.971 407.334 130.416V124.592C407.334 122.544 407.014 121.093 406.374 120.24C405.734 119.344 404.859 118.896 403.75 118.896C402.683 118.896 401.702 119.387 400.806 120.368C399.953 121.307 399.334 122.907 398.95 125.168C398.737 126.533 398.267 127.536 397.542 128.176C396.859 128.773 396.155 129.072 395.43 129.072C394.235 129.072 393.638 128.475 393.638 127.28C393.638 126.043 393.979 124.827 394.662 123.632C395.387 122.395 396.326 121.285 397.478 120.304C398.63 119.28 399.889 118.469 401.254 117.872C402.619 117.275 403.985 116.976 405.35 116.976C409.574 116.976 411.686 119.429 411.686 124.336V143.92C411.686 145.712 412.134 146.608 413.03 146.608C413.585 146.608 414.097 146.245 414.566 145.52C415.035 144.752 415.27 143.472 415.27 141.68C415.27 140.997 415.547 140.656 416.102 140.656C416.614 140.656 416.87 141.019 416.87 141.744C416.87 144.859 416.315 147.12 415.206 148.528C414.139 149.893 412.923 150.576 411.558 150.576C410.534 150.576 409.723 150.171 409.126 149.36C408.529 148.507 408.123 147.504 407.91 146.352C407.867 145.925 407.675 145.712 407.334 145.712C407.035 145.669 406.737 145.861 406.438 146.288C405.414 147.696 404.369 148.763 403.302 149.488C402.235 150.213 400.913 150.576 399.334 150.576ZM401.062 147.632C402.171 147.632 403.195 147.248 404.134 146.48C405.073 145.669 405.841 144.603 406.438 143.28C407.035 141.957 407.334 140.464 407.334 138.8V134.128C407.334 133.317 406.886 133.083 405.99 133.424C403.387 134.363 401.361 135.664 399.91 137.328C398.502 138.949 397.798 140.912 397.798 143.216C397.798 146.16 398.886 147.632 401.062 147.632ZM438.336 150.576C436.459 150.576 434.752 149.957 433.216 148.72C431.723 147.44 430.528 145.627 429.632 143.28C428.736 140.933 428.288 138.139 428.288 134.896C428.288 131.269 428.822 128.112 429.888 125.424C430.998 122.736 432.491 120.667 434.368 119.216C436.246 117.723 438.336 116.976 440.64 116.976C442.603 116.976 444.139 117.36 445.248 118.128C445.675 118.427 445.888 118.896 445.888 119.536L446.016 127.344C446.016 127.984 445.76 128.304 445.248 128.304C444.779 128.304 444.48 128.027 444.352 127.472C443.755 125.125 443.179 123.312 442.624 122.032C442.07 120.752 441.494 119.877 440.896 119.408C440.299 118.896 439.638 118.64 438.912 118.64C438.059 118.64 437.163 119.131 436.224 120.112C435.328 121.093 434.56 122.693 433.92 124.912C433.323 127.088 433.024 129.968 433.024 133.552C433.024 138.117 433.6 141.552 434.752 143.856C435.947 146.16 437.483 147.312 439.36 147.312C440.854 147.312 442.091 146.693 443.072 145.456C444.096 144.219 444.971 141.979 445.696 138.736C445.824 138.267 446.08 138.032 446.464 138.032C446.976 138.032 447.168 138.459 447.04 139.312C446.571 142.299 445.91 144.624 445.056 146.288C444.246 147.909 443.264 149.04 442.112 149.68C441.003 150.277 439.744 150.576 438.336 150.576ZM467.512 150.576C466.019 150.576 464.781 150.064 463.8 149.04C462.861 147.973 462.392 146.245 462.392 143.856V119.92C462.392 119.408 462.136 119.152 461.624 119.152H459.768C459.085 119.152 458.744 118.896 458.744 118.384C458.744 118.043 458.936 117.744 459.32 117.488C460.728 116.507 461.859 115.461 462.712 114.352C463.565 113.2 464.312 111.643 464.952 109.68C465.251 108.784 465.613 108.336 466.04 108.336C466.509 108.336 466.744 108.677 466.744 109.36V116.464C466.744 117.061 467.043 117.36 467.64 117.36H471.8C472.483 117.36 472.824 117.659 472.824 118.256C472.824 118.853 472.483 119.152 471.8 119.152H467.64C467.043 119.152 466.744 119.451 466.744 120.048V143.92C466.744 144.859 466.893 145.605 467.192 146.16C467.491 146.672 468.045 146.928 468.856 146.928C469.752 146.928 470.477 146.48 471.032 145.584C471.629 144.688 472.013 143.237 472.184 141.232C472.269 140.635 472.547 140.336 473.016 140.336C473.528 140.336 473.784 140.656 473.784 141.296C473.656 144.581 472.973 146.949 471.736 148.4C470.541 149.851 469.133 150.576 467.512 150.576ZM491.562 111.28C490.666 111.28 489.898 110.96 489.258 110.32C488.661 109.68 488.362 108.869 488.362 107.888C488.362 106.907 488.661 106.117 489.258 105.52C489.898 104.88 490.666 104.56 491.562 104.56C492.458 104.56 493.205 104.88 493.802 105.52C494.4 106.117 494.698 106.907 494.698 107.888C494.698 108.869 494.4 109.68 493.802 110.32C493.205 110.96 492.458 111.28 491.562 111.28ZM486.186 150C485.546 150 485.226 149.765 485.226 149.296C485.226 148.912 485.504 148.656 486.058 148.528L486.826 148.4C487.893 148.229 488.576 147.973 488.874 147.632C489.173 147.248 489.322 146.608 489.322 145.712V124.208C489.322 123.44 489.194 122.928 488.938 122.672C488.725 122.373 488.32 122.181 487.722 122.096L486.378 121.904C485.824 121.861 485.546 121.627 485.546 121.2C485.546 120.859 485.888 120.624 486.57 120.496C487.893 120.283 488.96 119.941 489.77 119.472C490.581 119.003 491.37 118.427 492.138 117.744C492.522 117.36 492.842 117.168 493.098 117.168C493.482 117.168 493.674 117.424 493.674 117.936V145.712C493.674 146.608 493.802 147.248 494.058 147.632C494.314 148.016 494.805 148.251 495.53 148.336L497.13 148.528C497.6 148.613 497.834 148.848 497.834 149.232C497.834 149.744 497.514 150 496.874 150H486.186ZM510.036 150C509.396 150 509.076 149.765 509.076 149.296C509.076 148.912 509.354 148.656 509.908 148.528L510.676 148.4C511.572 148.229 512.148 147.973 512.404 147.632C512.703 147.248 512.852 146.608 512.852 145.712V124.208C512.852 123.44 512.724 122.928 512.468 122.672C512.255 122.373 511.85 122.181 511.252 122.096L509.908 121.904C509.354 121.861 509.076 121.627 509.076 121.2C509.076 120.859 509.418 120.624 510.1 120.496C511.423 120.283 512.426 119.941 513.108 119.472C513.834 119.003 514.58 118.427 515.348 117.744C515.732 117.36 516.052 117.168 516.308 117.168C516.692 117.168 516.884 117.424 516.884 117.936V120.816C516.884 121.2 517.012 121.456 517.268 121.584C517.567 121.669 517.887 121.541 518.228 121.2C519.935 119.579 521.428 118.469 522.708 117.872C524.031 117.275 525.418 116.976 526.868 116.976C528.788 116.976 530.324 117.659 531.476 119.024C532.628 120.347 533.204 122.309 533.204 124.912V145.712C533.204 146.608 533.332 147.248 533.588 147.632C533.887 147.973 534.484 148.208 535.38 148.336L536.788 148.528C537.258 148.613 537.492 148.869 537.492 149.296C537.492 149.765 537.236 150 536.724 150H525.972C525.375 150 525.076 149.765 525.076 149.296C525.076 148.869 525.311 148.613 525.78 148.528L526.676 148.4C527.572 148.272 528.148 148.016 528.404 147.632C528.703 147.248 528.852 146.608 528.852 145.712V125.616C528.852 123.525 528.468 122.053 527.7 121.2C526.932 120.347 525.844 119.92 524.436 119.92C523.071 119.92 521.834 120.325 520.724 121.136C519.658 121.904 518.804 122.949 518.164 124.272C517.524 125.552 517.204 126.981 517.204 128.56V145.712C517.204 146.608 517.332 147.248 517.588 147.632C517.887 148.016 518.484 148.251 519.38 148.336L521.108 148.528C521.578 148.613 521.812 148.848 521.812 149.232C521.812 149.744 521.492 150 520.852 150H510.036ZM559.171 163.76C555.928 163.76 553.368 163.099 551.491 161.776C549.614 160.496 548.675 158.939 548.675 157.104C548.675 156.336 548.782 155.632 548.995 154.992C549.208 154.395 549.656 153.691 550.339 152.88C551.064 152.069 552.152 151.024 553.603 149.744C554.115 149.275 554.371 148.848 554.371 148.464C554.371 148.037 554.115 147.717 553.603 147.504C552.067 146.864 551.15 146.053 550.851 145.072C550.552 144.048 550.915 143.109 551.939 142.256L556.547 138.288C557.059 137.861 557.038 137.499 556.483 137.2C554.734 136.347 553.347 135.024 552.323 133.232C551.299 131.44 550.787 129.52 550.787 127.472C550.787 125.509 551.214 123.739 552.067 122.16C552.92 120.581 554.072 119.323 555.523 118.384C556.974 117.445 558.595 116.976 560.387 116.976C561.411 116.976 562.392 117.147 563.331 117.488C563.928 117.701 564.291 117.509 564.419 116.912C564.803 115.291 565.507 114.032 566.531 113.136C567.598 112.197 568.643 111.728 569.667 111.728C570.648 111.728 571.438 112.027 572.035 112.624C572.675 113.179 572.995 113.883 572.995 114.736C572.995 115.461 572.782 116.037 572.355 116.464C571.928 116.891 571.395 117.104 570.755 117.104C570.2 117.104 569.795 116.997 569.539 116.784C569.283 116.571 569.048 116.357 568.835 116.144C568.622 115.931 568.28 115.824 567.811 115.824C566.787 115.824 566.147 116.379 565.891 117.488C565.763 117.915 565.763 118.277 565.891 118.576C566.062 118.875 566.296 119.173 566.595 119.472C567.619 120.453 568.408 121.648 568.963 123.056C569.56 124.464 569.859 126.021 569.859 127.728C569.859 129.776 569.432 131.611 568.579 133.232C567.768 134.853 566.638 136.133 565.187 137.072C563.779 138.011 562.179 138.48 560.387 138.48C559.619 138.48 558.958 138.651 558.403 138.992C557.848 139.291 557.294 139.739 556.739 140.336L555.651 141.552C555.096 142.235 554.926 142.896 555.139 143.536C555.395 144.133 555.992 144.432 556.931 144.432H562.435C565.507 144.432 567.939 145.2 569.731 146.736C571.523 148.229 572.419 150.299 572.419 152.944C572.419 155.035 571.822 156.891 570.627 158.512C569.432 160.133 567.832 161.413 565.827 162.352C563.864 163.291 561.646 163.76 559.171 163.76ZM560.323 136.88C561.859 136.88 563.075 136.048 563.971 134.384C564.867 132.72 565.315 130.459 565.315 127.6C565.315 124.827 564.846 122.608 563.907 120.944C563.011 119.237 561.816 118.384 560.323 118.384C558.83 118.384 557.614 119.237 556.675 120.944C555.779 122.608 555.331 124.827 555.331 127.6C555.331 130.459 555.779 132.72 556.675 134.384C557.571 136.048 558.787 136.88 560.323 136.88ZM559.939 162.352C561.475 162.352 562.883 162.011 564.163 161.328C565.443 160.645 566.446 159.685 567.171 158.448C567.939 157.253 568.323 155.888 568.323 154.352C568.323 152.432 567.747 150.96 566.595 149.936C565.486 148.869 563.907 148.336 561.859 148.336H560.387C559.064 148.336 558.062 148.464 557.379 148.72C556.739 148.976 556.12 149.424 555.523 150.064C554.2 151.472 553.368 152.603 553.027 153.456C552.686 154.309 552.515 155.184 552.515 156.08C552.515 157.957 553.155 159.472 554.435 160.624C555.758 161.776 557.592 162.352 559.939 162.352Z" fill="#EFEFEF"/>
<path d="M188.955 167.282C188.06 167.939 186.394 168.789 185.365 169.078C182.796 169.939 190.396 169.205 193.739 168.242C195.796 167.757 195.925 167.755 194.388 168.604C192.85 169.453 193.239 169.634 196.334 169.598C210.78 169.708 239.687 171.222 240.21 171.862C240.602 172.32 239.574 172.608 237.898 172.628C236.35 172.646 231.97 173.066 228.236 173.57C222.699 174.373 221.152 174.391 220.624 173.381C220.229 172.647 219.449 172.102 218.675 172.111C218.03 172.118 217.777 172.491 218.169 172.948C218.953 173.862 215.101 175.292 214.059 174.473C213.669 174.2 214.183 174.01 215.215 173.998C216.762 173.98 216.76 173.795 215.205 173.167C212.871 172.085 205.528 172.817 205.027 174.115C204.648 174.766 203.872 174.59 202.96 173.77C201.656 172.584 190.297 171.699 186.05 172.487C185.406 172.587 178.444 172.76 170.576 172.758C160.517 172.782 156.908 173.008 158.334 173.638C159.89 174.359 159.378 174.642 156.154 174.679C151.898 174.728 150.336 173.453 153.55 172.585C154.45 172.298 154.188 172.024 152.899 172.038C151.608 171.961 150.584 172.619 150.593 173.358C150.601 174.097 149.706 174.754 148.546 174.767C147.514 174.779 147.004 175.247 147.396 175.704C147.918 176.252 148.822 176.334 149.592 176.048C150.362 175.67 150.621 175.759 150.24 176.318C149.859 176.784 147.282 176.998 144.571 176.752C140.053 176.435 139.923 176.344 142.881 175.664L146.098 174.98L142.873 174.925C141.066 174.853 138.237 175.532 136.699 176.381C135.032 177.232 131.041 177.832 127.045 177.97C123.434 178.012 119.699 178.425 118.802 178.989C117.905 179.461 116.102 179.667 114.809 179.405C113.386 179.052 111.713 179.348 110.947 180.003C109.926 180.939 111.863 181.101 121.145 180.809C127.462 180.552 132.615 180.123 132.611 179.753C132.599 178.738 142.79 178.897 143.447 179.905C143.71 180.364 142.685 180.93 141.138 181.04C139.721 181.149 137.274 181.454 135.859 181.748C134.442 181.949 132.511 182.248 131.609 182.259C130.707 182.361 130.195 182.737 130.717 183.192C131.763 184.473 148.514 183.172 150.817 181.575C151.84 180.824 153.381 180.253 154.026 180.245C154.671 180.238 154.417 180.61 153.391 181.084C152.237 181.651 158.299 181.674 168.869 181.182C193.232 180.162 222.377 179.918 239.022 180.557C246.893 180.928 255.151 181.203 257.472 181.176C259.922 181.147 261.475 181.591 261.223 182.148C260.843 182.707 260.073 183.085 259.299 183.002C258.007 182.832 255.427 182.769 244.852 182.891C243.821 182.903 238.017 182.878 231.955 182.855C225.893 182.833 218.93 182.913 216.482 183.126C214.033 183.247 207.973 183.409 202.943 183.375C198.042 183.432 192.757 183.677 191.212 183.88C189.796 184.081 183.482 184.615 177.039 185.059C170.724 185.501 163.642 186.414 161.329 187.18C159.015 187.853 157.47 188.056 157.852 187.589C158.361 187.029 157.068 186.767 155.005 186.791C152.814 186.909 152.3 187.099 153.722 187.36C156.952 187.877 156.455 189.453 153.103 189.584C151.427 189.603 148.981 190.001 147.568 190.479C145.898 191.052 148.478 191.115 154.663 190.674C163.943 190.105 166.788 190.811 159.062 191.824C150.948 192.841 136.659 195.13 134.087 195.714C133.701 195.811 130.739 196.214 127.262 196.624C123.914 197.124 120.828 197.899 120.319 198.459C119.938 199.017 120.197 199.107 120.967 198.728C121.865 198.349 122.511 198.433 122.516 198.895C122.523 199.449 124.973 199.421 128.706 198.824C132.052 198.231 143.136 197.549 153.45 197.245C163.764 196.942 182.071 196.361 194.319 195.943C216.878 195.036 276.346 196.104 317.253 198.126C348.741 199.702 329.137 199.651 284.107 198.047C235.079 196.396 209.419 196.877 167.674 200.406C155.562 201.377 152.473 201.967 150.943 203.462C149.538 204.679 146.325 205.64 141.303 206.252C128.938 207.687 113.634 211.466 113.652 212.943C113.655 213.22 117.141 213.549 121.527 213.684C126.429 213.719 129.006 213.505 128.482 212.864C128.089 212.315 128.475 212.218 129.639 212.482C130.802 212.745 133.252 212.625 135.179 212.048C137.237 211.563 139.815 211.441 140.979 211.704C142.273 212.059 137.901 213.218 130.308 214.598C116.41 217.252 115.394 218.557 126.877 218.978C130.619 219.12 133.973 219.174 134.36 219.262C136.812 219.326 126.913 222.118 123.818 222.154C120.337 222.194 108.626 224.361 103.484 225.806C102.456 226.187 101.169 226.386 100.652 226.3C100.264 226.212 99.2388 226.778 98.3437 227.435C97.3239 228.463 97.3292 228.924 98.4963 229.465C100.829 230.454 117.332 229.987 124.153 228.707C131.746 227.327 135.872 227.279 133.178 228.511C130.1 229.932 134.751 230.617 143.514 230.054C147.767 229.82 151.251 229.965 151.257 230.426C151.269 231.534 158.09 230.255 159.235 228.857C159.871 228.11 160.259 228.198 160.269 229.122C160.282 230.23 160.54 230.227 161.432 229.293C162.068 228.547 166.703 227.847 174.565 227.387C191.578 226.452 251.415 225.946 253.23 226.756C254.008 227.117 258.526 227.434 263.299 227.564C272.846 227.823 281.622 228.368 295.048 229.414C300.082 229.817 311.311 230.519 320.214 230.878C329.117 231.237 337.763 231.692 339.573 232.04C346.292 233.071 351.065 233.2 356.086 232.404C359.691 231.9 362.143 232.057 363.699 232.778C364.996 233.409 369.776 234.093 374.293 234.318C379.196 234.538 381.773 234.324 380.736 233.874C379.44 233.335 379.695 233.055 381.887 233.03C383.563 233.01 384.47 233.369 384.09 233.928C383.581 234.488 385.001 234.656 387.963 234.252C391.182 233.846 392.474 234.016 391.837 234.669C391.457 235.228 391.978 235.684 393.009 235.672C394.17 235.658 395.067 235.186 395.062 234.725C395.055 234.171 395.696 233.794 396.47 233.785C397.114 233.777 397.506 234.142 397.124 234.608C395.851 236.009 400.372 236.603 402.55 235.377C404.086 234.436 404.344 234.433 403.58 235.273C402.946 236.204 403.852 236.47 406.947 236.435C410.042 236.399 410.684 236.114 409.258 235.484C407.962 234.945 410.152 234.735 415.7 234.948C420.344 235.079 424.086 235.221 424.087 235.313C424.088 235.406 430.41 235.61 438.021 235.707C450.919 235.835 451.95 235.731 451.288 234.261C450.628 232.975 450.887 233.065 452.451 234.432C453.884 235.708 454.402 235.887 454.39 234.871C454.379 233.948 454.636 233.853 455.42 234.675C456.465 235.863 489.347 235.391 493.459 234.051C494.744 233.667 495.648 233.749 495.655 234.395C495.662 234.949 496.57 235.401 497.602 235.389C498.633 235.377 499.532 234.997 499.526 234.535C499.52 233.981 504.029 233.56 509.575 233.588C522.083 233.444 531.485 232.319 535.204 230.522C537.771 229.384 538.286 229.378 538.815 230.48C539.472 231.488 541.279 231.652 546.95 231.31C556.099 230.65 560.085 229.588 560.064 227.741C560.043 225.987 558.754 226.002 555.036 227.984C553.241 228.836 552.341 229.123 552.722 228.565C553.358 227.819 546.521 227.713 529.762 228.276C513.775 228.737 505.906 228.643 505.899 227.997C505.892 227.443 506.664 227.249 507.569 227.423C508.346 227.691 512.336 226.999 516.193 226.031C522.752 224.385 528.813 224.315 523.157 225.951C521.1 226.528 521.231 226.712 524.326 226.676C526.39 226.744 527.675 226.268 527.538 225.623C527.006 224.244 530.356 223.928 532.562 225.103C533.47 225.554 535.535 225.715 537.08 225.42C538.752 225.032 544.551 224.688 549.966 224.533C556.026 224.371 559.632 223.867 559.239 223.41C558.717 222.862 559.49 222.761 561.299 223.109C562.851 223.461 563.882 223.356 563.49 222.992C563.098 222.534 567.607 222.113 573.409 221.954C585.273 221.817 590.164 220.929 587.053 219.58C585.626 218.95 586.01 218.668 588.718 218.637C590.652 218.614 592.075 218.967 591.952 219.431C591.699 219.895 592.219 220.259 592.865 220.344C593.639 220.335 594.145 219.498 594.131 218.297C594.118 217.189 593.587 215.902 592.809 215.542C592.159 215.088 592.933 215.079 594.612 215.336C596.94 215.864 597.454 215.673 596.669 214.758C595.884 213.752 596.013 213.75 597.312 214.566C598.221 215.11 599.772 215.369 600.928 214.986C602.342 214.601 602.732 214.873 602.1 215.989C601.723 216.824 601.861 217.562 602.634 217.553C603.279 217.545 604.174 216.888 604.553 216.145C605.06 215.4 605.829 215.022 606.477 215.292C607.513 215.649 608.146 214.626 607.868 212.874C607.865 212.597 609.798 212.483 612.121 212.641C614.573 212.797 618.308 212.292 620.619 211.434C622.931 210.576 625.76 209.897 627.05 209.882C628.339 209.868 629.624 209.483 630.007 209.11C630.769 208.085 623.038 208.728 611.196 210.712C605.661 211.607 601.545 212.578 601.808 213.037C602.199 213.402 601.427 213.503 600.134 213.241C598.842 213.071 597.672 212.253 597.664 211.607C597.656 210.868 598.167 210.493 598.685 210.672C599.204 210.943 602.292 210.26 605.633 209.206C608.974 208.152 612.704 207.277 613.993 207.262C615.283 207.248 616.697 206.862 617.206 206.302C618.224 205.089 603.031 207.297 590.169 210.308C586.182 211.278 565.969 214.281 559.527 214.91C557.466 215.118 555.15 215.607 554.381 215.985C553.611 216.271 549.101 216.693 544.46 216.839C539.819 216.984 535.181 217.407 534.155 217.881C532.615 218.545 526.557 218.892 494.84 219.72C481.818 220.055 480.657 220.068 481.808 219.224C482.703 218.567 489.274 218.029 499.977 217.814C504.619 217.76 533.347 214.935 542.488 213.629C555.622 211.815 566.426 209.289 565.769 208.188C565.373 207.454 568.457 206.495 575.022 205.403C580.428 204.417 586.345 203.148 588.142 202.389C592.378 200.678 589.929 200.798 582.211 202.55C569.091 205.564 569.716 203.802 582.958 200.232C591.701 197.915 596.458 196.567 602.882 194.461C605.065 193.697 607.123 193.211 607.64 193.298C608.028 193.386 608.666 192.824 609.046 192.173C609.55 191.151 608.774 190.976 605.682 191.288C601.044 191.711 600.659 191.901 615.05 187.209C622.759 184.719 631.737 180.459 631.724 179.351C631.709 178.058 620.894 179.661 614.085 181.864C610.231 183.201 607.014 183.792 606.62 183.243C606.099 182.787 606.094 182.325 606.481 182.321C606.866 182.224 607.639 182.123 608.283 182.023C608.797 181.925 611.237 180.973 613.676 180.021C616.115 178.977 620.224 177.452 622.663 176.5L627.158 174.878L618.65 175.161C612.333 175.419 610.267 175.166 610.644 174.33C611.023 173.679 612.562 172.923 613.976 172.537C618.479 171.561 631.19 166.705 634.007 164.917C635.415 163.977 636.306 162.951 635.913 162.494C634.998 161.396 625.328 161.693 624.439 162.811C623.929 163.371 622.644 163.755 621.481 163.584C620.191 163.507 616.589 164.287 613.249 165.434C604.899 168.301 601.939 168.889 601.926 167.781C601.921 167.319 603.203 166.658 604.877 166.454C606.423 166.251 605.001 165.991 601.776 165.936C598.423 165.974 593.4 166.586 590.443 167.359C585.557 168.616 585.17 168.621 585.024 167.145C585.013 166.221 584.624 166.041 584.246 166.784C583.994 167.341 583.096 167.721 582.577 167.45C581.929 167.181 580.646 167.749 579.754 168.683C577.97 170.551 573.084 171.808 566.513 172.346C564.45 172.462 559.429 173.166 555.568 173.857C551.705 174.456 546.426 175.163 543.977 175.284C541.528 175.405 537.148 175.825 534.314 176.134C520.791 177.768 491.146 179.311 491.135 178.387C491.13 178.018 483.39 177.83 473.975 177.846C464.691 177.954 453.725 177.711 449.852 177.386C445.979 177.061 435.527 176.535 426.625 176.269C417.722 176.002 409.721 175.54 408.943 175.18C406.221 174.01 385.327 173.974 385.341 175.175C385.348 175.729 384.831 175.643 384.177 174.911C383.395 174.181 382.102 173.919 380.173 174.403C378.244 174.887 377.599 174.802 378.107 174.15C378.615 173.498 377.061 172.962 374.091 172.626C371.38 172.381 367.764 171.961 365.955 171.704C363.501 171.363 363.116 171.552 364.672 172.273C366.228 172.994 366.101 173.18 363.651 173.209C361.975 173.228 360.939 172.87 361.32 172.404C361.703 172.03 359.895 171.867 357.447 172.08C354.484 172.298 353.192 172.129 353.7 171.476C354.082 171.01 353.561 170.554 352.529 170.566C351.368 170.58 350.47 170.959 350.475 171.421C350.488 172.529 342.604 171.05 341.427 169.678C340.775 169.039 339.745 169.236 338.339 170.268C336.549 171.674 335.647 171.685 332.412 170.798C330.341 170.176 327.631 170.022 326.474 170.313C325.317 170.696 323.639 170.53 322.86 170.077C321.951 169.534 318.723 169.202 315.499 169.239C312.404 169.274 306.726 168.971 303.11 168.551C299.366 168.224 296.27 168.168 296.275 168.629C296.279 168.999 295.639 169.376 294.865 169.385C294.22 169.392 293.83 169.119 294.083 168.655C294.72 168.001 294.074 167.916 274.081 167.685C267.115 167.581 261.436 167.184 261.433 166.907C261.428 166.538 259.366 166.654 256.92 167.052C254.475 167.449 252.412 167.565 252.408 167.196C252.405 166.919 242.601 166.755 230.48 166.895C217.068 167.05 208.295 166.781 208.031 166.23C207.638 165.681 206.867 165.967 206.102 166.714C205.337 167.462 204.694 167.654 204.688 167.1C204.671 165.623 191.001 165.78 188.955 167.282ZM218.499 168.049C218.115 168.331 216.956 168.436 216.05 168.17C215.015 167.905 215.398 167.623 216.817 167.607C218.234 167.498 219.011 167.766 218.499 168.049ZM256.339 172.507C256.344 172.969 255.186 173.167 253.764 172.906C252.343 172.646 251.178 172.29 251.176 172.105C251.173 171.92 252.332 171.722 253.75 171.706C255.169 171.69 256.334 172.046 256.339 172.507ZM269.891 173.367C270.283 173.824 269.773 174.292 268.741 174.304C267.581 174.317 266.673 173.866 266.667 173.404C266.661 172.85 267.172 172.475 267.817 172.467C268.591 172.458 269.498 172.817 269.891 173.367ZM167.39 176.027C167.405 177.32 167.018 177.325 165.46 176.419C164.421 175.784 163.511 175.148 163.509 174.964C163.506 174.779 164.407 174.584 165.439 174.572C166.47 174.56 167.38 175.196 167.39 176.027ZM172.681 187.418C172.687 187.88 171.145 188.36 169.21 188.382C166.373 188.415 165.984 188.234 167.523 187.478C170.088 186.248 172.667 186.218 172.681 187.418ZM164.564 188.066C164.18 188.348 163.021 188.453 162.115 188.187C161.08 187.922 161.463 187.64 162.882 187.624C164.299 187.515 165.076 187.783 164.564 188.066ZM596.97 185.201C596.976 185.663 596.08 186.32 594.923 186.61C593.123 187.093 592.993 187.002 594.398 185.785C596.185 184.194 596.956 184.001 596.97 185.201ZM178.395 201.852C177.494 202.047 175.947 202.065 175.171 201.89C174.265 201.623 174.908 201.431 176.713 201.41C178.519 201.389 179.166 201.566 178.395 201.852ZM349.259 199.881C347.198 200.089 344.103 200.125 342.166 199.963C340.101 199.802 341.775 199.598 345.644 199.553C349.512 199.508 351.191 199.674 349.259 199.881ZM160.997 202.977C159.71 203.176 157.646 203.2 156.484 203.029C155.191 202.767 156.22 202.57 158.67 202.542C161.121 202.513 162.154 202.686 160.997 202.977ZM153.607 210.727C153.612 211.189 152.586 211.663 151.425 211.676C149.491 211.698 149.36 211.515 151.028 210.757C153.465 209.621 153.594 209.619 153.607 210.727ZM559.199 208.818C559.591 209.275 559.08 209.743 557.92 209.757C556.759 209.77 556.238 209.314 556.619 208.848C557 208.289 557.64 207.913 557.898 207.91C558.156 207.907 558.805 208.269 559.199 208.818ZM579.809 217.724C580.201 218.181 579.82 218.739 578.921 219.027C577.892 219.316 577.114 218.955 577.106 218.217C577.089 216.739 578.762 216.443 579.809 217.724ZM480.01 219.891C480.016 220.353 478.731 220.829 477.183 220.755C474.346 220.788 474.345 220.695 476.786 219.928C478.199 219.45 479.485 219.066 479.743 219.063C479.87 218.969 480.004 219.337 480.01 219.891ZM435.1 228.537C434.199 228.732 432.778 228.471 432.127 228.017C431.087 227.29 431.602 227.192 433.799 227.536C435.479 227.886 436.128 228.248 435.1 228.537ZM503.329 228.858C503.335 229.319 502.434 229.514 501.399 229.249C500.363 228.892 499.841 228.344 500.223 227.878C500.984 226.853 503.315 227.657 503.329 228.858ZM471.989 228.85C471.606 229.131 470.446 229.237 469.54 228.97C468.505 228.705 468.889 228.424 470.307 228.407C471.725 228.299 472.502 228.567 471.989 228.85ZM479.212 228.859C478.311 229.054 476.764 229.072 475.988 228.896C475.082 228.629 475.725 228.437 477.53 228.416C479.335 228.396 479.982 228.573 479.212 228.859ZM494.3 228.777C494.305 229.146 492.504 229.537 490.311 229.562C487.475 229.687 486.829 229.51 487.983 228.942C490.163 227.901 494.289 227.761 494.3 228.777ZM532.365 230.37C532.758 230.827 532.247 231.295 531.087 231.308C529.926 231.321 529.405 230.866 529.786 230.399C530.167 229.841 530.807 229.464 531.065 229.461C531.323 229.458 531.972 229.82 532.365 230.37ZM400.865 234.658C401.257 235.115 401.004 235.58 400.36 235.587C399.586 235.596 398.936 235.142 398.93 234.68C398.924 234.126 399.178 233.754 399.436 233.751C399.822 233.746 400.471 234.108 400.865 234.658Z" fill="#EFEFEF"/>
<mask id="mask0_2116_53" style="mask-type:luminance" maskUnits="userSpaceOnUse" x="109" y="65" width="87" height="96">
<path d="M109.885 65H195.232V161H109.885V65Z" fill="white"/>
</mask>
<g mask="url(#mask0_2116_53)">
<path d="M194.934 88.4939V144.801C194.934 155.446 176.978 161.006 159.226 161.006C141.486 161.006 123.519 155.446 123.519 144.801V137.602C125.215 137.958 126.987 138.139 128.806 138.139C129.332 138.139 129.871 138.132 130.385 138.09V144.801C130.385 147.879 140.562 153.879 159.226 153.879C177.89 153.879 188.073 147.879 188.073 144.801V92.7228C190.752 91.518 193.074 90.1024 194.934 88.4939ZM123.519 89.9096V128.56C123.729 128.711 123.975 128.855 124.22 129C124.542 129.181 124.858 129.331 125.215 129.47L125.308 129.506C126.402 129.946 127.566 130.157 128.888 130.157C129.251 130.157 129.619 130.151 129.987 130.12C130.116 130.108 130.245 130.096 130.385 130.078V92.7228C129.637 92.3855 128.911 92.0301 128.227 91.6626C126.683 90.8373 125.291 89.9397 124.074 88.9518C123.893 88.8012 123.694 88.6385 123.519 88.4819M130.257 135.307C149.254 134.048 170.854 108.916 179.569 97.7289C178.106 98.0903 176.592 98.4096 175.036 98.6867C166.877 108.777 147.213 130.867 130.549 132.241C129.976 132.289 129.403 132.319 128.853 132.319C126.7 132.319 124.665 131.928 122.84 131.187C122.162 130.928 121.518 130.62 120.939 130.289C117.026 128.078 114.628 124.928 113.611 120.657C111.055 109.922 118.067 95.5903 121.536 89.3975C120.746 88.6445 120.05 87.8554 119.448 87.0421C116.161 92.7891 107.814 109.03 110.756 121.379C111.973 126.476 114.932 130.379 119.541 132.982C120.968 133.777 122.46 134.379 123.998 134.777C125.507 135.175 127.122 135.373 128.8 135.373C129.297 135.373 129.771 135.355 130.257 135.307ZM194.875 78.9518C194.875 81.6385 192.933 84.1566 189.564 86.2831C183.277 90.265 172.047 92.9156 159.226 92.9156C146.417 92.9156 135.187 90.265 128.9 86.2831C125.525 84.1566 123.583 81.6385 123.583 78.9518C123.583 71.2409 139.545 64.9939 159.226 64.9939C178.919 64.9939 194.875 71.2409 194.875 78.9518ZM189.974 78.9518C189.974 76.6807 179.399 70.0903 159.226 70.0903C139.053 70.0903 128.49 76.6807 128.49 78.9518C128.49 79.8674 130.198 81.4759 133.549 83.0843C138.533 80.7048 147.166 78.3493 159.226 78.3493C171.292 78.3493 179.92 80.7048 184.903 83.0843C188.26 81.4879 189.974 79.8674 189.974 78.9518ZM148.996 97.4397C143.762 96.8494 138.767 95.8012 134.392 94.3132C135.07 95.6867 136.877 99.7891 136.971 104.151C137.094 109.488 131.883 120.446 137.895 120.446C142.253 120.446 137.895 109.873 138.562 104.524C138.796 102.681 139.474 100.566 140.141 98.8313C141.463 98.7831 143.159 99.0662 143.592 100.705C144.329 103.506 145.066 107.325 147.154 104.904C148.897 102.879 149.008 98.7228 148.996 97.4397Z" fill="#EFEFEF"/>
</g>
<mask id="mask1_2116_53" style="mask-type:luminance" maskUnits="userSpaceOnUse" x="596" y="95" width="100" height="105">
<path d="M596.885 95H695.296V199.115H596.885V95Z" fill="white"/>
</mask>
<g mask="url(#mask1_2116_53)">
<path d="M692.624 98.5398C686.369 91.969 677.291 99.7379 669.234 108.202C665.254 112.382 661.593 116.769 658.65 120.895C655.364 125.501 649.39 127.071 644.447 124.637L642.062 123.455C638.671 121.781 634.614 122.525 631.968 125.31L619.598 138.304C619.161 138.758 618.942 139.359 618.937 139.956L606.395 153.13C606.359 153.147 606.322 153.168 606.286 153.19L605.484 154.033C605.468 154.071 605.447 154.104 605.431 154.142L597.489 162.491C596.853 163.153 596.853 164.231 597.489 164.893L605.364 173.165C605.666 173.483 606.077 173.663 606.504 173.663H608.697L608.77 176.092C608.78 176.525 608.952 176.935 609.244 177.241L620.879 189.464C621.312 189.918 621.952 190.076 622.536 189.874L625.723 188.758L624.614 192.013C624.405 192.631 624.551 193.321 624.994 193.786L629.463 198.48C630.093 199.142 631.119 199.142 631.749 198.48L642.109 187.598L643.421 186.214L647.541 181.892L653.197 175.945C653.77 175.939 654.338 175.709 654.775 175.25L664.65 164.882L667.145 162.261C669.791 159.477 670.499 155.215 668.905 151.658L667.786 149.147C665.463 143.955 666.963 137.68 671.348 134.228C675.275 131.136 679.452 127.29 683.431 123.116C691.484 114.652 698.879 105.111 692.624 98.5398ZM644.103 180.693C643.968 179.709 643.687 178.773 643.254 177.881C640.567 172.366 632.572 169.773 624.838 167.262C614.619 163.947 607.89 161.326 608.421 155.806L620.744 142.866L650.426 174.052L644.103 180.693ZM653.171 170.205L624.4 139.983L631.53 132.493L660.301 162.716L653.171 170.205ZM680.223 119.751C676.395 123.772 672.385 127.46 668.629 130.42C662.53 135.223 660.452 143.95 663.687 151.172L664.806 153.677C665.593 155.428 665.244 157.529 663.942 158.897L662.588 160.314L633.817 130.091L635.171 128.674C636.473 127.307 638.468 126.94 640.135 127.761L642.52 128.943C649.395 132.335 657.702 130.152 662.275 123.751C665.093 119.8 668.603 115.588 672.431 111.566C685.525 97.8121 688.359 100.788 689.421 101.904C690.489 103.026 693.317 105.997 680.223 119.751Z" fill="#EFEFEF"/>
</g>
<path d="M603.588 157.454C604.374 156.688 605.63 156.698 606.403 157.478L611.298 162.412L623.323 166.937L627.832 168.446L630.763 170.89C630.815 170.933 630.862 170.981 630.903 171.033L632.847 173.462L636.363 180.478L639.376 185.992L639.881 188.496L639.385 190.5L634.885 195L632.885 197.5L630.994 198.916C630.922 198.97 630.835 198.999 630.745 198.999V198.999C630.194 198.999 629.666 198.78 629.276 198.391L627.885 197L624.885 194L624.606 193.164C624.463 192.734 624.47 192.268 624.626 191.843L625.86 188.475L623.385 189.5L621.955 189.857C621.603 189.945 621.231 189.836 620.983 189.571L613.885 182L608.885 177L608.811 173.425L605.806 172.92L602.296 169.409L598.566 164.921C597.899 164.118 597.961 162.938 598.708 162.21L603.588 157.454Z" fill="#EFEFEF"/>
<ellipse cx="158.885" cy="82.5" rx="26" ry="5.5" fill="#EFEFEF"/>
<path d="M133.885 94L142.678 96.2308L148.885 97.3462L148.885 100L148.368 102.365L147.389 104.827C147.043 105.698 146.201 106.269 145.264 106.269V106.269L144.23 104.596V104.596C141.677 103.463 138.846 105.489 139.095 108.27L139.385 111.5L139.885 117L139.725 119.801C139.636 121.361 138.516 122.671 136.988 123V123L136.436 122.643C135.186 121.834 134.488 120.398 134.626 118.915L134.919 115.75L136.471 107.942V103.845C136.471 102.128 136.176 100.423 135.599 98.8056L133.885 94Z" fill="#EFEFEF"/>
<path d="M620.435 142.79C620.83 142.378 621.49 142.381 621.882 142.796L649.848 172.376C650.577 173.147 650.577 174.353 649.848 175.124L640.505 185.002C640.035 185.499 639.215 185.388 638.895 184.783L633.007 173.663C631.555 170.92 629.072 168.866 626.105 167.953V167.953L620.966 166.021L616.332 164.596L611.627 162.473C611.539 162.433 611.457 162.381 611.385 162.318L607.796 159.217C607.563 159.016 607.436 158.72 607.451 158.413L607.52 156.95C607.543 156.467 607.74 156.008 608.075 155.659L620.435 142.79Z" fill="#005B99"/>
</svg>
